<svg width="86" height="41" viewBox="0 0 86 41" fill="none" xmlns="http://www.w3.org/2000/svg">
<path d="M7.00625 8.024C8.58491 8.024 9.96447 8.33689 11.1449 8.96267C12.3254 9.58844 13.2356 10.4702 13.8756 11.608C14.5298 12.7316 14.8569 14.0329 14.8569 15.512C14.8569 16.9769 14.5298 18.2782 13.8756 19.416C13.2356 20.5538 12.3182 21.4356 11.1236 22.0613C9.94314 22.6871 8.57069 23 7.00625 23H1.39558V8.024H7.00625ZM6.77158 19.8427C8.15114 19.8427 9.22491 19.4658 9.99292 18.712C10.7609 17.9582 11.1449 16.8916 11.1449 15.512C11.1449 14.1324 10.7609 13.0587 9.99292 12.2907C9.22491 11.5227 8.15114 11.1387 6.77158 11.1387H5.04358V19.8427H6.77158ZM16.1702 17.0267C16.1702 15.8036 16.3978 14.7298 16.8529 13.8053C17.3222 12.8809 17.9551 12.1698 18.7516 11.672C19.548 11.1742 20.4369 10.9253 21.4182 10.9253C22.2574 10.9253 22.9898 11.096 23.6156 11.4373C24.2556 11.7787 24.7462 12.2267 25.0876 12.7813V11.096H28.7356V23H25.0876V21.3147C24.732 21.8693 24.2342 22.3173 23.5942 22.6587C22.9685 23 22.236 23.1707 21.3969 23.1707C20.4298 23.1707 19.548 22.9218 18.7516 22.424C17.9551 21.912 17.3222 21.1938 16.8529 20.2693C16.3978 19.3307 16.1702 18.2498 16.1702 17.0267ZM25.0876 17.048C25.0876 16.1378 24.8316 15.4196 24.3196 14.8933C23.8218 14.3671 23.2102 14.104 22.4849 14.104C21.7596 14.104 21.1409 14.3671 20.6289 14.8933C20.1311 15.4053 19.8822 16.1164 19.8822 17.0267C19.8822 17.9369 20.1311 18.6622 20.6289 19.2027C21.1409 19.7289 21.7596 19.992 22.4849 19.992C23.2102 19.992 23.8218 19.7289 24.3196 19.2027C24.8316 18.6764 25.0876 17.9582 25.0876 17.048ZM38.0094 19.9067V23H36.1534C34.8307 23 33.7996 22.68 33.0601 22.04C32.3205 21.3858 31.9507 20.3262 31.9507 18.8613V14.1253H30.5001V11.096H31.9507V8.19467H35.5987V11.096H37.9881V14.1253H35.5987V18.904C35.5987 19.2596 35.6841 19.5156 35.8547 19.672C36.0254 19.8284 36.3099 19.9067 36.7081 19.9067H38.0094ZM39.3161 17.0267C39.3161 15.8036 39.5436 14.7298 39.9988 13.8053C40.4681 12.8809 41.101 12.1698 41.8974 11.672C42.6939 11.1742 43.5828 10.9253 44.5641 10.9253C45.4032 10.9253 46.1356 11.096 46.7614 11.4373C47.4014 11.7787 47.8921 12.2267 48.2334 12.7813V11.096H51.8814V23H48.2334V21.3147C47.8779 21.8693 47.3801 22.3173 46.7401 22.6587C46.1143 23 45.3819 23.1707 44.5428 23.1707C43.5756 23.1707 42.6939 22.9218 41.8974 22.424C41.101 21.912 40.4681 21.1938 39.9988 20.2693C39.5436 19.3307 39.3161 18.2498 39.3161 17.0267ZM48.2334 17.048C48.2334 16.1378 47.9774 15.4196 47.4654 14.8933C46.9676 14.3671 46.3561 14.104 45.6308 14.104C44.9054 14.104 44.2868 14.3671 43.7748 14.8933C43.277 15.4053 43.0281 16.1164 43.0281 17.0267C43.0281 17.9369 43.277 18.6622 43.7748 19.2027C44.2868 19.7289 44.9054 19.992 45.6308 19.992C46.3561 19.992 46.9676 19.7289 47.4654 19.2027C47.9774 18.6764 48.2334 17.9582 48.2334 17.048Z" fill="#111111"/>
<path d="M71.4806 8.024V23H67.8326V14.0187L64.4832 23H61.5392L58.1686 13.9973V23H54.5206V8.024H58.8299L63.0326 18.392L67.1926 8.024H71.4806ZM85.3253 16.856C85.3253 17.1973 85.3039 17.5529 85.2613 17.9227H77.0053C77.0621 18.6622 77.2968 19.2311 77.7093 19.6293C78.1359 20.0133 78.655 20.2053 79.2666 20.2053C80.1768 20.2053 80.8097 19.8213 81.1653 19.0533H85.0479C84.8488 19.8356 84.4861 20.5396 83.9599 21.1653C83.4479 21.7911 82.8008 22.2818 82.0186 22.6373C81.2364 22.9929 80.3617 23.1707 79.3946 23.1707C78.2284 23.1707 77.1901 22.9218 76.2799 22.424C75.3697 21.9262 74.6586 21.2151 74.1466 20.2907C73.6346 19.3662 73.3786 18.2853 73.3786 17.048C73.3786 15.8107 73.6275 14.7298 74.1253 13.8053C74.6373 12.8809 75.3484 12.1698 76.2586 11.672C77.1688 11.1742 78.2141 10.9253 79.3946 10.9253C80.5466 10.9253 81.5706 11.1671 82.4666 11.6507C83.3626 12.1342 84.0595 12.824 84.5573 13.72C85.0693 14.616 85.3253 15.6613 85.3253 16.856ZM81.5919 15.896C81.5919 15.2702 81.3786 14.7724 80.9519 14.4027C80.5253 14.0329 79.9919 13.848 79.3519 13.848C78.7404 13.848 78.2213 14.0258 77.7946 14.3813C77.3821 14.7369 77.1261 15.2418 77.0266 15.896H81.5919Z" fill="#237BFF"/>
<path d="M16.2308 33.7427C16.2308 33.108 16.3739 32.5387 16.6601 32.0347C16.9463 31.5244 17.3352 31.1262 17.8268 30.84C18.3245 30.5538 18.8752 30.4107 19.4788 30.4107C20.1881 30.4107 20.8072 30.5818 21.3361 30.924C21.865 31.2662 22.2508 31.7516 22.4934 32.38H21.4761C21.2956 31.988 21.0343 31.6862 20.6921 31.4747C20.3561 31.2631 19.9516 31.1573 19.4788 31.1573C19.0245 31.1573 18.617 31.2631 18.2561 31.4747C17.8952 31.6862 17.6121 31.988 17.4068 32.38C17.2014 32.7658 17.0988 33.22 17.0988 33.7427C17.0988 34.2591 17.2014 34.7133 17.4068 35.1053C17.6121 35.4911 17.8952 35.7898 18.2561 36.0013C18.617 36.2129 19.0245 36.3187 19.4788 36.3187C19.9516 36.3187 20.3561 36.216 20.6921 36.0107C21.0343 35.7991 21.2956 35.4973 21.4761 35.1053H22.4934C22.2508 35.7276 21.865 36.2098 21.3361 36.552C20.8072 36.888 20.1881 37.056 19.4788 37.056C18.8752 37.056 18.3245 36.916 17.8268 36.636C17.3352 36.3498 16.9463 35.9547 16.6601 35.4507C16.3739 34.9467 16.2308 34.3773 16.2308 33.7427ZM25.9884 37.084C25.5093 37.084 25.0737 36.9751 24.6817 36.7573C24.296 36.5396 23.9911 36.2316 23.7671 35.8333C23.5493 35.4289 23.4404 34.9622 23.4404 34.4333C23.4404 33.9107 23.5524 33.4502 23.7764 33.052C24.0066 32.6476 24.3177 32.3396 24.7097 32.128C25.1017 31.9102 25.5404 31.8013 26.0257 31.8013C26.5111 31.8013 26.9497 31.9102 27.3417 32.128C27.7337 32.3396 28.0417 32.6444 28.2657 33.0427C28.496 33.4409 28.6111 33.9044 28.6111 34.4333C28.6111 34.9622 28.4928 35.4289 28.2564 35.8333C28.0262 36.2316 27.712 36.5396 27.3137 36.7573C26.9155 36.9751 26.4737 37.084 25.9884 37.084ZM25.9884 36.3373C26.2933 36.3373 26.5795 36.2658 26.8471 36.1227C27.1146 35.9796 27.3293 35.7649 27.4911 35.4787C27.6591 35.1924 27.7431 34.844 27.7431 34.4333C27.7431 34.0227 27.6622 33.6742 27.5004 33.388C27.3386 33.1018 27.1271 32.8902 26.8657 32.7533C26.6044 32.6102 26.3213 32.5387 26.0164 32.5387C25.7053 32.5387 25.4191 32.6102 25.1577 32.7533C24.9026 32.8902 24.6973 33.1018 24.5417 33.388C24.3862 33.6742 24.3084 34.0227 24.3084 34.4333C24.3084 34.8502 24.3831 35.2018 24.5324 35.488C24.688 35.7742 24.8933 35.9889 25.1484 36.132C25.4035 36.2689 25.6835 36.3373 25.9884 36.3373ZM35.8784 31.792C36.2767 31.792 36.6313 31.876 36.9424 32.044C37.2536 32.2058 37.4993 32.4516 37.6798 32.7813C37.8602 33.1111 37.9504 33.5124 37.9504 33.9853V37H37.1104V34.1067C37.1104 33.5964 36.9829 33.2076 36.7278 32.94C36.4789 32.6662 36.1398 32.5293 35.7104 32.5293C35.2687 32.5293 34.9171 32.6724 34.6558 32.9587C34.3944 33.2387 34.2638 33.6462 34.2638 34.1813V37H33.4238V34.1067C33.4238 33.5964 33.2962 33.2076 33.0411 32.94C32.7922 32.6662 32.4531 32.5293 32.0238 32.5293C31.582 32.5293 31.2304 32.6724 30.9691 32.9587C30.7078 33.2387 30.5771 33.6462 30.5771 34.1813V37H29.7278V31.8853H30.5771V32.6227C30.7451 32.3551 30.9691 32.1498 31.2491 32.0067C31.5353 31.8636 31.8496 31.792 32.1918 31.792C32.6211 31.792 33.0007 31.8884 33.3304 32.0813C33.6602 32.2742 33.906 32.5573 34.0678 32.9307C34.2109 32.5698 34.4473 32.2898 34.7771 32.0907C35.1069 31.8916 35.474 31.792 35.8784 31.792ZM40.193 32.828C40.361 32.5356 40.6099 32.2929 40.9397 32.1C41.2757 31.9009 41.6646 31.8013 42.1063 31.8013C42.5606 31.8013 42.9712 31.9102 43.3383 32.128C43.7117 32.3458 44.0041 32.6538 44.2157 33.052C44.4272 33.444 44.533 33.9013 44.533 34.424C44.533 34.9404 44.4272 35.4009 44.2157 35.8053C44.0041 36.2098 43.7117 36.524 43.3383 36.748C42.9712 36.972 42.5606 37.084 42.1063 37.084C41.6708 37.084 41.285 36.9876 40.949 36.7947C40.6192 36.5956 40.3672 36.3498 40.193 36.0573V39.4267H39.3437V31.8853H40.193V32.828ZM43.665 34.424C43.665 34.0382 43.5872 33.7022 43.4317 33.416C43.2761 33.1298 43.0646 32.912 42.797 32.7627C42.5357 32.6133 42.2463 32.5387 41.929 32.5387C41.6179 32.5387 41.3286 32.6164 41.061 32.772C40.7997 32.9213 40.5881 33.1422 40.4263 33.4347C40.2708 33.7209 40.193 34.0538 40.193 34.4333C40.193 34.8191 40.2708 35.1582 40.4263 35.4507C40.5881 35.7369 40.7997 35.9578 41.061 36.1133C41.3286 36.2627 41.6179 36.3373 41.929 36.3373C42.2463 36.3373 42.5357 36.2627 42.797 36.1133C43.0646 35.9578 43.2761 35.7369 43.4317 35.4507C43.5872 35.1582 43.665 34.816 43.665 34.424ZM45.3336 34.424C45.3336 33.9013 45.4394 33.444 45.651 33.052C45.8625 32.6538 46.1518 32.3458 46.519 32.128C46.8923 31.9102 47.3061 31.8013 47.7603 31.8013C48.2083 31.8013 48.5972 31.8978 48.927 32.0907C49.2567 32.2836 49.5025 32.5262 49.6643 32.8187V31.8853H50.523V37H49.6643V36.048C49.4963 36.3467 49.2443 36.5956 48.9083 36.7947C48.5785 36.9876 48.1927 37.084 47.751 37.084C47.2967 37.084 46.8861 36.972 46.519 36.748C46.1518 36.524 45.8625 36.2098 45.651 35.8053C45.4394 35.4009 45.3336 34.9404 45.3336 34.424ZM49.6643 34.4333C49.6643 34.0476 49.5865 33.7116 49.431 33.4253C49.2754 33.1391 49.0638 32.9213 48.7963 32.772C48.535 32.6164 48.2456 32.5387 47.9283 32.5387C47.611 32.5387 47.3216 32.6133 47.0603 32.7627C46.799 32.912 46.5905 33.1298 46.435 33.416C46.2794 33.7022 46.2016 34.0382 46.2016 34.424C46.2016 34.816 46.2794 35.1582 46.435 35.4507C46.5905 35.7369 46.799 35.9578 47.0603 36.1133C47.3216 36.2627 47.611 36.3373 47.9283 36.3373C48.2456 36.3373 48.535 36.2627 48.7963 36.1133C49.0638 35.9578 49.2754 35.7369 49.431 35.4507C49.5865 35.1582 49.6643 34.8191 49.6643 34.4333ZM54.4502 31.792C55.0725 31.792 55.5765 31.9818 55.9622 32.3613C56.348 32.7347 56.5409 33.276 56.5409 33.9853V37H55.7009V34.1067C55.7009 33.5964 55.5734 33.2076 55.3182 32.94C55.0631 32.6662 54.7147 32.5293 54.2729 32.5293C53.8249 32.5293 53.4671 32.6693 53.1996 32.9493C52.9382 33.2293 52.8076 33.6369 52.8076 34.172V37H51.9582V31.8853H52.8076V32.6133C52.9756 32.352 53.2027 32.1498 53.4889 32.0067C53.7814 31.8636 54.1018 31.792 54.4502 31.792ZM58.367 31.0547C58.2052 31.0547 58.0683 30.9987 57.9563 30.8867C57.8443 30.7747 57.7883 30.6378 57.7883 30.476C57.7883 30.3142 57.8443 30.1773 57.9563 30.0653C58.0683 29.9533 58.2052 29.8973 58.367 29.8973C58.5225 29.8973 58.6532 29.9533 58.759 30.0653C58.871 30.1773 58.927 30.3142 58.927 30.476C58.927 30.6378 58.871 30.7747 58.759 30.8867C58.6532 30.9987 58.5225 31.0547 58.367 31.0547ZM58.7776 31.8853V37H57.9283V31.8853H58.7776ZM64.8918 34.2467C64.8918 34.4084 64.8825 34.5796 64.8638 34.76H60.7758C60.807 35.264 60.9781 35.6591 61.2892 35.9453C61.6065 36.2253 61.9892 36.3653 62.4372 36.3653C62.8043 36.3653 63.1092 36.2813 63.3518 36.1133C63.6007 35.9391 63.775 35.7089 63.8745 35.4227H64.7892C64.6523 35.9142 64.3785 36.3156 63.9678 36.6267C63.5572 36.9316 63.047 37.084 62.4372 37.084C61.9518 37.084 61.5163 36.9751 61.1305 36.7573C60.751 36.5396 60.4523 36.2316 60.2345 35.8333C60.0167 35.4289 59.9078 34.9622 59.9078 34.4333C59.9078 33.9044 60.0136 33.4409 60.2252 33.0427C60.4367 32.6444 60.7323 32.3396 61.1118 32.128C61.4976 31.9102 61.9394 31.8013 62.4372 31.8013C62.9225 31.8013 63.3518 31.9071 63.7252 32.1187C64.0985 32.3302 64.3847 32.6227 64.5838 32.996C64.7892 33.3631 64.8918 33.78 64.8918 34.2467ZM64.0145 34.0693C64.0145 33.7458 63.943 33.4689 63.7998 33.2387C63.6567 33.0022 63.4607 32.8249 63.2118 32.7067C62.9692 32.5822 62.6985 32.52 62.3998 32.52C61.9705 32.52 61.6034 32.6569 61.2985 32.9307C60.9998 33.2044 60.8287 33.584 60.7852 34.0693H64.0145ZM67.8236 37.084C67.4316 37.084 67.0801 37.0187 66.7689 36.888C66.4578 36.7511 66.2121 36.5644 66.0316 36.328C65.8512 36.0853 65.7516 35.8084 65.7329 35.4973H66.6103C66.6352 35.7524 66.7534 35.9609 66.9649 36.1227C67.1827 36.2844 67.4658 36.3653 67.8143 36.3653C68.1378 36.3653 68.3929 36.2938 68.5796 36.1507C68.7663 36.0076 68.8596 35.8271 68.8596 35.6093C68.8596 35.3853 68.7601 35.2204 68.5609 35.1147C68.3618 35.0027 68.0538 34.8938 67.6369 34.788C67.2574 34.6884 66.9463 34.5889 66.7036 34.4893C66.4672 34.3836 66.2618 34.2311 66.0876 34.032C65.9196 33.8267 65.8356 33.5591 65.8356 33.2293C65.8356 32.968 65.9134 32.7284 66.0689 32.5107C66.2245 32.2929 66.4454 32.1218 66.7316 31.9973C67.0178 31.8667 67.3445 31.8013 67.7116 31.8013C68.2778 31.8013 68.7352 31.9444 69.0836 32.2307C69.4321 32.5169 69.6187 32.9089 69.6436 33.4067H68.7943C68.7756 33.1391 68.6667 32.9244 68.4676 32.7627C68.2747 32.6009 68.0134 32.52 67.6836 32.52C67.3787 32.52 67.1361 32.5853 66.9556 32.716C66.7752 32.8467 66.6849 33.0178 66.6849 33.2293C66.6849 33.3973 66.7378 33.5373 66.8436 33.6493C66.9556 33.7551 67.0925 33.8422 67.2543 33.9107C67.4223 33.9729 67.6525 34.0444 67.9449 34.1253C68.3121 34.2249 68.6107 34.3244 68.8409 34.424C69.0712 34.5173 69.2672 34.6604 69.4289 34.8533C69.5969 35.0462 69.6841 35.2982 69.6903 35.6093C69.6903 35.8893 69.6125 36.1413 69.4569 36.3653C69.3014 36.5893 69.0805 36.7667 68.7943 36.8973C68.5143 37.0218 68.1907 37.084 67.8236 37.084Z" fill="black"/>
</svg>
