<svg width="85" height="16" viewBox="0 0 85 16" fill="none" xmlns="http://www.w3.org/2000/svg">
<path d="M5.95069 0.0239991C7.52936 0.0239991 8.90891 0.336888 10.0894 0.962665C11.2698 1.58844 12.18 2.47022 12.82 3.608C13.4742 4.73155 13.8014 6.03289 13.8014 7.512C13.8014 8.97689 13.4742 10.2782 12.82 11.416C12.18 12.5538 11.2627 13.4356 10.068 14.0613C8.88758 14.6871 7.51514 15 5.95069 15H0.340024V0.0239991H5.95069ZM5.71602 11.8427C7.09558 11.8427 8.16936 11.4658 8.93736 10.712C9.70536 9.95822 10.0894 8.89156 10.0894 7.512C10.0894 6.13244 9.70536 5.05867 8.93736 4.29067C8.16936 3.52267 7.09558 3.13867 5.71602 3.13867H3.98802V11.8427H5.71602ZM15.1147 9.02667C15.1147 7.80355 15.3422 6.72978 15.7974 5.80533C16.2667 4.88089 16.8996 4.16978 17.696 3.672C18.4925 3.17422 19.3814 2.92533 20.3627 2.92533C21.2018 2.92533 21.9342 3.096 22.56 3.43733C23.2 3.77867 23.6907 4.22667 24.032 4.78133V3.096H27.68V15H24.032V13.3147C23.6765 13.8693 23.1787 14.3173 22.5387 14.6587C21.9129 15 21.1805 15.1707 20.3414 15.1707C19.3742 15.1707 18.4925 14.9218 17.696 14.424C16.8996 13.912 16.2667 13.1938 15.7974 12.2693C15.3422 11.3307 15.1147 10.2498 15.1147 9.02667ZM24.032 9.048C24.032 8.13778 23.776 7.41955 23.264 6.89333C22.7662 6.36711 22.1547 6.104 21.4294 6.104C20.704 6.104 20.0854 6.36711 19.5734 6.89333C19.0756 7.40533 18.8267 8.11644 18.8267 9.02667C18.8267 9.93689 19.0756 10.6622 19.5734 11.2027C20.0854 11.7289 20.704 11.992 21.4294 11.992C22.1547 11.992 22.7662 11.7289 23.264 11.2027C23.776 10.6764 24.032 9.95822 24.032 9.048ZM36.9539 11.9067V15H35.0979C33.7752 15 32.7441 14.68 32.0045 14.04C31.265 13.3858 30.8952 12.3262 30.8952 10.8613V6.12533H29.4445V3.096H30.8952V0.194666H34.5432V3.096H36.9325V6.12533H34.5432V10.904C34.5432 11.2596 34.6285 11.5156 34.7992 11.672C34.9699 11.8284 35.2543 11.9067 35.6525 11.9067H36.9539ZM38.2605 9.02667C38.2605 7.80355 38.4881 6.72978 38.9432 5.80533C39.4125 4.88089 40.0454 4.16978 40.8419 3.672C41.6383 3.17422 42.5272 2.92533 43.5085 2.92533C44.3476 2.92533 45.0801 3.096 45.7059 3.43733C46.3459 3.77867 46.8365 4.22667 47.1779 4.78133V3.096H50.8259V15H47.1779V13.3147C46.8223 13.8693 46.3245 14.3173 45.6845 14.6587C45.0587 15 44.3263 15.1707 43.4872 15.1707C42.5201 15.1707 41.6383 14.9218 40.8419 14.424C40.0454 13.912 39.4125 13.1938 38.9432 12.2693C38.4881 11.3307 38.2605 10.2498 38.2605 9.02667ZM47.1779 9.048C47.1779 8.13778 46.9219 7.41955 46.4099 6.89333C45.9121 6.36711 45.3005 6.104 44.5752 6.104C43.8499 6.104 43.2312 6.36711 42.7192 6.89333C42.2214 7.40533 41.9725 8.11644 41.9725 9.02667C41.9725 9.93689 42.2214 10.6622 42.7192 11.2027C43.2312 11.7289 43.8499 11.992 44.5752 11.992C45.3005 11.992 45.9121 11.7289 46.4099 11.2027C46.9219 10.6764 47.1779 9.95822 47.1779 9.048Z" fill="#111111"/>
<path d="M70.425 0.0239991V15H66.777V6.01867L63.4277 15H60.4837L57.113 5.99733V15H53.465V0.0239991H57.7744L61.977 10.392L66.137 0.0239991H70.425ZM84.2697 8.856C84.2697 9.19733 84.2484 9.55289 84.2057 9.92267H75.9497C76.0066 10.6622 76.2412 11.2311 76.6537 11.6293C77.0804 12.0133 77.5995 12.2053 78.211 12.2053C79.1212 12.2053 79.7541 11.8213 80.1097 11.0533H83.9924C83.7932 11.8356 83.4306 12.5396 82.9044 13.1653C82.3924 13.7911 81.7452 14.2818 80.963 14.6373C80.1808 14.9929 79.3061 15.1707 78.339 15.1707C77.1728 15.1707 76.1346 14.9218 75.2244 14.424C74.3141 13.9262 73.603 13.2151 73.091 12.2907C72.579 11.3662 72.323 10.2853 72.323 9.048C72.323 7.81067 72.5719 6.72978 73.0697 5.80533C73.5817 4.88089 74.2928 4.16978 75.203 3.672C76.1132 3.17422 77.1586 2.92533 78.339 2.92533C79.491 2.92533 80.515 3.16711 81.411 3.65067C82.307 4.13422 83.0039 4.824 83.5017 5.72C84.0137 6.616 84.2697 7.66133 84.2697 8.856ZM80.5364 7.896C80.5364 7.27022 80.323 6.77244 79.8964 6.40267C79.4697 6.03289 78.9364 5.848 78.2964 5.848C77.6848 5.848 77.1657 6.02578 76.739 6.38133C76.3266 6.73689 76.0706 7.24178 75.971 7.896H80.5364Z" fill="#237BFF"/>
</svg>
