<svg width="86" height="41" viewBox="0 0 86 41" fill="none" xmlns="http://www.w3.org/2000/svg">
<path d="M7.00625 8.024C8.58491 8.024 9.96447 8.33689 11.1449 8.96267C12.3254 9.58844 13.2356 10.4702 13.8756 11.608C14.5298 12.7316 14.8569 14.0329 14.8569 15.512C14.8569 16.9769 14.5298 18.2782 13.8756 19.416C13.2356 20.5538 12.3182 21.4356 11.1236 22.0613C9.94314 22.6871 8.57069 23 7.00625 23H1.39558V8.024H7.00625ZM6.77158 19.8427C8.15114 19.8427 9.22491 19.4658 9.99292 18.712C10.7609 17.9582 11.1449 16.8916 11.1449 15.512C11.1449 14.1324 10.7609 13.0587 9.99292 12.2907C9.22491 11.5227 8.15114 11.1387 6.77158 11.1387H5.04358V19.8427H6.77158ZM16.1702 17.0267C16.1702 15.8036 16.3978 14.7298 16.8529 13.8053C17.3222 12.8809 17.9551 12.1698 18.7516 11.672C19.548 11.1742 20.4369 10.9253 21.4182 10.9253C22.2574 10.9253 22.9898 11.096 23.6156 11.4373C24.2556 11.7787 24.7462 12.2267 25.0876 12.7813V11.096H28.7356V23H25.0876V21.3147C24.732 21.8693 24.2342 22.3173 23.5942 22.6587C22.9685 23 22.236 23.1707 21.3969 23.1707C20.4298 23.1707 19.548 22.9218 18.7516 22.424C17.9551 21.912 17.3222 21.1938 16.8529 20.2693C16.3978 19.3307 16.1702 18.2498 16.1702 17.0267ZM25.0876 17.048C25.0876 16.1378 24.8316 15.4196 24.3196 14.8933C23.8218 14.3671 23.2102 14.104 22.4849 14.104C21.7596 14.104 21.1409 14.3671 20.6289 14.8933C20.1311 15.4053 19.8822 16.1164 19.8822 17.0267C19.8822 17.9369 20.1311 18.6622 20.6289 19.2027C21.1409 19.7289 21.7596 19.992 22.4849 19.992C23.2102 19.992 23.8218 19.7289 24.3196 19.2027C24.8316 18.6764 25.0876 17.9582 25.0876 17.048ZM38.0094 19.9067V23H36.1534C34.8307 23 33.7996 22.68 33.0601 22.04C32.3205 21.3858 31.9507 20.3262 31.9507 18.8613V14.1253H30.5001V11.096H31.9507V8.19467H35.5987V11.096H37.9881V14.1253H35.5987V18.904C35.5987 19.2596 35.6841 19.5156 35.8547 19.672C36.0254 19.8284 36.3099 19.9067 36.7081 19.9067H38.0094ZM39.3161 17.0267C39.3161 15.8036 39.5436 14.7298 39.9988 13.8053C40.4681 12.8809 41.101 12.1698 41.8974 11.672C42.6939 11.1742 43.5828 10.9253 44.5641 10.9253C45.4032 10.9253 46.1356 11.096 46.7614 11.4373C47.4014 11.7787 47.8921 12.2267 48.2334 12.7813V11.096H51.8814V23H48.2334V21.3147C47.8779 21.8693 47.3801 22.3173 46.7401 22.6587C46.1143 23 45.3819 23.1707 44.5428 23.1707C43.5756 23.1707 42.6939 22.9218 41.8974 22.424C41.101 21.912 40.4681 21.1938 39.9988 20.2693C39.5436 19.3307 39.3161 18.2498 39.3161 17.0267ZM48.2334 17.048C48.2334 16.1378 47.9774 15.4196 47.4654 14.8933C46.9676 14.3671 46.3561 14.104 45.6308 14.104C44.9054 14.104 44.2868 14.3671 43.7748 14.8933C43.277 15.4053 43.0281 16.1164 43.0281 17.0267C43.0281 17.9369 43.277 18.6622 43.7748 19.2027C44.2868 19.7289 44.9054 19.992 45.6308 19.992C46.3561 19.992 46.9676 19.7289 47.4654 19.2027C47.9774 18.6764 48.2334 17.9582 48.2334 17.048Z" fill="#111111"/>
<path d="M71.4806 8.024V23H67.8326V14.0187L64.4832 23H61.5392L58.1686 13.9973V23H54.5206V8.024H58.8299L63.0326 18.392L67.1926 8.024H71.4806ZM85.3253 16.856C85.3253 17.1973 85.3039 17.5529 85.2613 17.9227H77.0053C77.0621 18.6622 77.2968 19.2311 77.7093 19.6293C78.1359 20.0133 78.655 20.2053 79.2666 20.2053C80.1768 20.2053 80.8097 19.8213 81.1653 19.0533H85.0479C84.8488 19.8356 84.4861 20.5396 83.9599 21.1653C83.4479 21.7911 82.8008 22.2818 82.0186 22.6373C81.2364 22.9929 80.3617 23.1707 79.3946 23.1707C78.2284 23.1707 77.1901 22.9218 76.2799 22.424C75.3697 21.9262 74.6586 21.2151 74.1466 20.2907C73.6346 19.3662 73.3786 18.2853 73.3786 17.048C73.3786 15.8107 73.6275 14.7298 74.1253 13.8053C74.6373 12.8809 75.3484 12.1698 76.2586 11.672C77.1688 11.1742 78.2141 10.9253 79.3946 10.9253C80.5466 10.9253 81.5706 11.1671 82.4666 11.6507C83.3626 12.1342 84.0595 12.824 84.5573 13.72C85.0693 14.616 85.3253 15.6613 85.3253 16.856ZM81.5919 15.896C81.5919 15.2702 81.3786 14.7724 80.9519 14.4027C80.5253 14.0329 79.9919 13.848 79.3519 13.848C78.7404 13.848 78.2213 14.0258 77.7946 14.3813C77.3821 14.7369 77.1261 15.2418 77.0266 15.896H81.5919Z" fill="#237BFF"/>
<path d="M31.8892 30.4947V34.6107C31.8892 35.1893 32.0292 35.6187 32.3092 35.8987C32.5954 36.1787 32.9905 36.3187 33.4945 36.3187C33.9923 36.3187 34.3812 36.1787 34.6612 35.8987C34.9474 35.6187 35.0905 35.1893 35.0905 34.6107V30.4947H35.9398V34.6013C35.9398 35.1427 35.831 35.6 35.6132 35.9733C35.3954 36.3404 35.0998 36.6142 34.7265 36.7947C34.3594 36.9751 33.9456 37.0653 33.4852 37.0653C33.0247 37.0653 32.6078 36.9751 32.2345 36.7947C31.8674 36.6142 31.575 36.3404 31.3572 35.9733C31.1456 35.6 31.0398 35.1427 31.0398 34.6013V30.4947H31.8892ZM39.1674 37.084C38.7754 37.084 38.4238 37.0187 38.1127 36.888C37.8016 36.7511 37.5558 36.5644 37.3754 36.328C37.1949 36.0853 37.0954 35.8084 37.0767 35.4973H37.954C37.9789 35.7524 38.0971 35.9609 38.3087 36.1227C38.5265 36.2844 38.8096 36.3653 39.158 36.3653C39.4816 36.3653 39.7367 36.2938 39.9234 36.1507C40.11 36.0076 40.2034 35.8271 40.2034 35.6093C40.2034 35.3853 40.1038 35.2204 39.9047 35.1147C39.7056 35.0027 39.3976 34.8938 38.9807 34.788C38.6011 34.6884 38.29 34.5889 38.0474 34.4893C37.8109 34.3836 37.6056 34.2311 37.4314 34.032C37.2634 33.8267 37.1794 33.5591 37.1794 33.2293C37.1794 32.968 37.2571 32.7284 37.4127 32.5107C37.5682 32.2929 37.7891 32.1218 38.0754 31.9973C38.3616 31.8667 38.6882 31.8013 39.0554 31.8013C39.6216 31.8013 40.0789 31.9444 40.4274 32.2307C40.7758 32.5169 40.9625 32.9089 40.9874 33.4067H40.138C40.1194 33.1391 40.0105 32.9244 39.8114 32.7627C39.6185 32.6009 39.3571 32.52 39.0274 32.52C38.7225 32.52 38.4798 32.5853 38.2994 32.716C38.1189 32.8467 38.0287 33.0178 38.0287 33.2293C38.0287 33.3973 38.0816 33.5373 38.1874 33.6493C38.2994 33.7551 38.4362 33.8422 38.598 33.9107C38.766 33.9729 38.9962 34.0444 39.2887 34.1253C39.6558 34.2249 39.9545 34.3244 40.1847 34.424C40.4149 34.5173 40.6109 34.6604 40.7727 34.8533C40.9407 35.0462 41.0278 35.2982 41.034 35.6093C41.034 35.8893 40.9562 36.1413 40.8007 36.3653C40.6451 36.5893 40.4242 36.7667 40.138 36.8973C39.858 37.0218 39.5345 37.084 39.1674 37.084ZM46.8997 34.2467C46.8997 34.4084 46.8903 34.5796 46.8717 34.76H42.7837C42.8148 35.264 42.9859 35.6591 43.297 35.9453C43.6143 36.2253 43.997 36.3653 44.445 36.3653C44.8121 36.3653 45.117 36.2813 45.3597 36.1133C45.6085 35.9391 45.7828 35.7089 45.8823 35.4227H46.797C46.6601 35.9142 46.3863 36.3156 45.9757 36.6267C45.565 36.9316 45.0548 37.084 44.445 37.084C43.9597 37.084 43.5241 36.9751 43.1383 36.7573C42.7588 36.5396 42.4601 36.2316 42.2423 35.8333C42.0245 35.4289 41.9157 34.9622 41.9157 34.4333C41.9157 33.9044 42.0214 33.4409 42.233 33.0427C42.4445 32.6444 42.7401 32.3396 43.1197 32.128C43.5054 31.9102 43.9472 31.8013 44.445 31.8013C44.9303 31.8013 45.3597 31.9071 45.733 32.1187C46.1063 32.3302 46.3925 32.6227 46.5917 32.996C46.797 33.3631 46.8997 33.78 46.8997 34.2467ZM46.0223 34.0693C46.0223 33.7458 45.9508 33.4689 45.8077 33.2387C45.6645 33.0022 45.4685 32.8249 45.2197 32.7067C44.977 32.5822 44.7063 32.52 44.4077 32.52C43.9783 32.52 43.6112 32.6569 43.3063 32.9307C43.0077 33.2044 42.8365 33.584 42.793 34.0693H46.0223ZM48.8701 32.716C49.0194 32.4236 49.231 32.1964 49.5048 32.0347C49.7848 31.8729 50.1239 31.792 50.5221 31.792V32.6693H50.2981C49.3461 32.6693 48.8701 33.1858 48.8701 34.2187V37H48.0208V31.8853H48.8701V32.716ZM53.3132 37.084C52.9212 37.084 52.5696 37.0187 52.2585 36.888C51.9474 36.7511 51.7016 36.5644 51.5212 36.328C51.3407 36.0853 51.2412 35.8084 51.2225 35.4973H52.0999C52.1247 35.7524 52.243 35.9609 52.4545 36.1227C52.6723 36.2844 52.9554 36.3653 53.3039 36.3653C53.6274 36.3653 53.8825 36.2938 54.0692 36.1507C54.2559 36.0076 54.3492 35.8271 54.3492 35.6093C54.3492 35.3853 54.2496 35.2204 54.0505 35.1147C53.8514 35.0027 53.5434 34.8938 53.1265 34.788C52.747 34.6884 52.4359 34.5889 52.1932 34.4893C51.9567 34.3836 51.7514 34.2311 51.5772 34.032C51.4092 33.8267 51.3252 33.5591 51.3252 33.2293C51.3252 32.968 51.403 32.7284 51.5585 32.5107C51.7141 32.2929 51.935 32.1218 52.2212 31.9973C52.5074 31.8667 52.8341 31.8013 53.2012 31.8013C53.7674 31.8013 54.2247 31.9444 54.5732 32.2307C54.9216 32.5169 55.1083 32.9089 55.1332 33.4067H54.2839C54.2652 33.1391 54.1563 32.9244 53.9572 32.7627C53.7643 32.6009 53.503 32.52 53.1732 32.52C52.8683 32.52 52.6256 32.5853 52.4452 32.716C52.2647 32.8467 52.1745 33.0178 52.1745 33.2293C52.1745 33.3973 52.2274 33.5373 52.3332 33.6493C52.4452 33.7551 52.5821 33.8422 52.7439 33.9107C52.9119 33.9729 53.1421 34.0444 53.4345 34.1253C53.8016 34.2249 54.1003 34.3244 54.3305 34.424C54.5607 34.5173 54.7567 34.6604 54.9185 34.8533C55.0865 35.0462 55.1736 35.2982 55.1799 35.6093C55.1799 35.8893 55.1021 36.1413 54.9465 36.3653C54.791 36.5893 54.5701 36.7667 54.2839 36.8973C54.0039 37.0218 53.6803 37.084 53.3132 37.084Z" fill="black"/>
</svg>
